<svg width="79" height="80" xmlns="http://www.w3.org/2000/svg" xmlns:xlink="http://www.w3.org/1999/xlink" xml:space="preserve" overflow="hidden"><defs><clipPath id="clip0"><rect x="1210" y="54" width="79" height="80"/></clipPath></defs><g clip-path="url(#clip0)" transform="translate(-1210 -54)"><path d="M43.2936 27.6533 43.2936 34.0758 51.3799 34.0758 50.2485 42.861 43.2936 42.861 43.2936 62.9937 34.4751 62.9937 34.4751 42.861 26.9212 42.861 26.9212 34.0758 34.4751 34.0758 34.4751 27.6533C34.4751 20.6984 40.099 16.0063 47.0539 16.0063 50.1154 16.0063 52.0455 16.4722 52.0455 16.4722L52.0455 23.893 47.0539 23.893C44.9907 23.893 43.2936 25.5901 43.2936 27.6533Z" fill="#FFFFFF" transform="matrix(1 0 0 1.01266 1210 54)"/><path d="M39.5 79C17.7367 79 0 61.2965 0 39.5 0 17.7035 17.7367 0 39.5 0 61.2965 0 79 17.7367 79 39.5 79 61.2633 61.2965 79 39.5 79ZM39.5 2.16302C18.9014 2.16302 2.16302 18.9014 2.16302 39.5 2.16302 60.0986 18.9014 76.837 39.5 76.837 60.0986 76.837 76.837 60.0986 76.837 39.5 76.837 18.9014 60.0986 2.16302 39.5 2.16302Z" fill="#FFFFFF" transform="matrix(1 0 0 1.01266 1210 54)"/></g></svg>