<svg width="82" height="81" xmlns="http://www.w3.org/2000/svg" xmlns:xlink="http://www.w3.org/1999/xlink" xml:space="preserve" overflow="hidden"><defs><clipPath id="clip0"><rect x="1024" y="54" width="82" height="81"/></clipPath></defs><g clip-path="url(#clip0)" transform="translate(-1024 -54)"><path d="M51.0771 17.2304 29.957 17.2304C22.9625 17.2304 17.2645 22.9284 17.2645 29.9229L17.2645 51.043C17.2645 58.0375 22.9625 63.7355 29.957 63.7355L51.0771 63.7355C58.0716 63.7355 63.7696 58.0375 63.7696 51.043L63.7696 29.957C63.7696 22.9284 58.0716 17.2304 51.0771 17.2304ZM59.7776 51.0771C59.7776 55.888 55.888 59.7776 51.0771 59.7776L29.957 59.7776C25.1462 59.7776 21.2224 55.888 21.2224 51.0771L21.2224 29.957C21.2224 25.1462 25.1462 21.2224 29.957 21.2224L51.0771 21.2224C55.888 21.2224 59.7776 25.112 59.7776 29.957L59.7776 51.0771Z" fill="#FFFFFF" transform="matrix(1.01235 0 0 1 1024 54)"/><path d="M56.0586 27.7734C56.0586 29.3429 54.7961 30.6394 53.1925 30.6394 51.623 30.6394 50.3265 29.377 50.3265 27.7734 50.3265 26.2039 51.5889 24.9073 53.1925 24.9073 54.7961 24.9414 56.0586 26.2039 56.0586 27.7734Z" fill="#FFFFFF" transform="matrix(1.01235 0 0 1 1024 54)"/><path d="M40.5 28.6605C33.9832 28.6605 28.6605 33.9832 28.6605 40.5 28.6605 47.0168 33.9832 52.3395 40.5 52.3395 47.0168 52.3395 52.3395 47.0168 52.3395 40.5 52.3395 33.9832 47.051 28.6605 40.5 28.6605ZM40.5 48.3475C36.1668 48.3475 32.6525 44.8332 32.6525 40.5 32.6525 36.1668 36.1668 32.6525 40.5 32.6525 44.8332 32.6525 48.3475 36.1668 48.3475 40.5 48.3475 44.8332 44.8332 48.3475 40.5 48.3475Z" fill="#FFFFFF" transform="matrix(1.01235 0 0 1 1024 54)"/><path d="M40.5 81C18.1858 81 0 62.8484 0 40.5 0 18.1858 18.1858 0 40.5 0 62.8484 0 81 18.1858 81 40.5 81 62.8484 62.8484 81 40.5 81ZM40.5 2.21778C19.3799 2.21778 2.21778 19.3799 2.21778 40.5 2.21778 61.6201 19.3799 78.7822 40.5 78.7822 61.6201 78.7822 78.7822 61.6201 78.7822 40.5 78.7822 19.3799 61.6201 2.21778 40.5 2.21778Z" fill="#FFFFFF" transform="matrix(1.01235 0 0 1 1024 54)"/></g></svg>