<svg width="79" height="80" xmlns="http://www.w3.org/2000/svg" xmlns:xlink="http://www.w3.org/1999/xlink" xml:space="preserve" overflow="hidden"><defs><clipPath id="clip0"><rect x="1118" y="54" width="79" height="80"/></clipPath></defs><g clip-path="url(#clip0)" transform="translate(-1118 -54)"><path d="M41.663 15.4406C29.5834 15.4406 19.7666 25.2574 19.7666 37.337 19.7666 41.297 20.8315 45.1238 22.8281 48.4848L19.8665 59.1668 31.0809 56.5046C34.3088 58.3016 37.936 59.2334 41.663 59.2334 53.7426 59.2334 63.5594 49.4166 63.5594 37.337 63.5594 25.2574 53.7426 15.4406 41.663 15.4406ZM41.663 55.6394C38.3353 55.6394 35.1074 54.7409 32.2789 53.0771L31.6466 52.711 24.9579 54.2751 26.7216 47.9191 26.289 47.2536C24.3922 44.3252 23.3939 40.8644 23.3939 37.337 23.3939 27.254 31.6133 19.0345 41.6963 19.0345 51.7793 19.0345 59.9987 27.254 59.9987 37.337 59.9655 47.4532 51.746 55.6394 41.663 55.6394Z" fill="#FFFFFF" transform="matrix(1 0 0 1.01266 1118 54)"/><path d="M52.0788 45.2237C51.9124 46.1222 49.9823 47.2536 48.7511 47.5864 45.6896 48.385 41.3968 46.0556 37.1373 42.3618 32.8446 38.6348 29.9495 34.7081 30.3488 31.58 30.4819 30.3488 31.3804 28.2523 32.2456 27.9861 33.0775 27.7199 33.6765 27.9528 34.5417 28.2523 34.9743 28.7182 35.5067 29.3172 36.1057 29.9827 36.9044 30.8812 37.4368 31.7131 37.8029 32.2789 38.0691 32.7447 37.9692 33.3437 37.5699 33.7098L36.1057 35.0076C35.8395 35.2405 35.7397 35.6398 35.9061 35.9393 36.3719 36.9044 37.4368 38.901 39.0008 40.2654 40.5649 41.6297 42.6946 42.3951 43.6929 42.7279 44.0257 42.8277 44.3917 42.6946 44.5914 42.3951L45.6896 40.7645C45.989 40.3319 46.588 40.1323 47.0872 40.3319 47.6862 40.5981 48.5847 40.9975 49.583 41.663 50.3484 42.1622 50.9806 42.6281 51.5131 42.9941 51.9124 43.7928 52.2452 44.3585 52.0788 45.2237Z" fill="#FFFFFF" transform="matrix(1 0 0 1.01266 1118 54)"/><path d="M39.5 79C17.7367 79 0 61.2965 0 39.5 0 17.7367 17.7367 0 39.5 0 61.2633 0 79 17.7367 79 39.5 79 61.2965 61.2965 79 39.5 79ZM39.5 2.16302C18.9014 2.16302 2.16302 18.9014 2.16302 39.5 2.16302 60.0986 18.9014 76.837 39.5 76.837 60.0986 76.837 76.837 60.0986 76.837 39.5 76.837 18.9014 60.0986 2.16302 39.5 2.16302Z" fill="#FFFFFF" transform="matrix(1 0 0 1.01266 1118 54)"/></g></svg>